<mxfile host="app.diagrams.net" modified="2024-05-04T04:52:53.375Z" agent="Mozilla/5.0 (Windows NT 10.0; Win64; x64) AppleWebKit/537.36 (KHTML, like Gecko) Chrome/124.0.0.0 Safari/537.36" etag="9sJz9HEhM_WZOWO5oswh" version="24.3.1" type="device">
  <diagram id="C5RBs43oDa-KdzZeNtuy" name="Page-1">
    <mxGraphModel dx="1034" dy="1615" grid="1" gridSize="10" guides="1" tooltips="1" connect="1" arrows="1" fold="1" page="1" pageScale="1" pageWidth="827" pageHeight="1169" math="0" shadow="0">
      <root>
        <mxCell id="WIyWlLk6GJQsqaUBKTNV-0" />
        <mxCell id="WIyWlLk6GJQsqaUBKTNV-1" parent="WIyWlLk6GJQsqaUBKTNV-0" />
        <mxCell id="zTV7QJXzMeomIHiCT_PH-0" value="FileNotFoundException" style="swimlane;fontStyle=1;align=center;verticalAlign=top;childLayout=stackLayout;horizontal=1;startSize=29.41666603088379;horizontalStack=0;resizeParent=1;resizeParentMax=0;resizeLast=0;collapsible=0;marginBottom=0;" vertex="1" parent="WIyWlLk6GJQsqaUBKTNV-1">
          <mxGeometry x="490" y="180" width="313" height="124.41666603088379" as="geometry" />
        </mxCell>
        <mxCell id="zTV7QJXzMeomIHiCT_PH-1" value="-message: String" style="text;strokeColor=none;fillColor=none;align=left;verticalAlign=top;spacingLeft=4;spacingRight=4;overflow=hidden;rotatable=0;points=[[0,0.5],[1,0.5]];portConstraint=eastwest;" vertex="1" parent="zTV7QJXzMeomIHiCT_PH-0">
          <mxGeometry y="29.41666603088379" width="313" height="29" as="geometry" />
        </mxCell>
        <mxCell id="zTV7QJXzMeomIHiCT_PH-2" style="line;strokeWidth=1;fillColor=none;align=left;verticalAlign=middle;spacingTop=-1;spacingLeft=3;spacingRight=3;rotatable=0;labelPosition=right;points=[];portConstraint=eastwest;strokeColor=inherit;" vertex="1" parent="zTV7QJXzMeomIHiCT_PH-0">
          <mxGeometry y="58.41666603088379" width="313" height="8" as="geometry" />
        </mxCell>
        <mxCell id="zTV7QJXzMeomIHiCT_PH-3" value="+FileNotFoundException(message: String)" style="text;strokeColor=none;fillColor=none;align=left;verticalAlign=top;spacingLeft=4;spacingRight=4;overflow=hidden;rotatable=0;points=[[0,0.5],[1,0.5]];portConstraint=eastwest;" vertex="1" parent="zTV7QJXzMeomIHiCT_PH-0">
          <mxGeometry y="66.41666603088379" width="313" height="29" as="geometry" />
        </mxCell>
        <mxCell id="zTV7QJXzMeomIHiCT_PH-4" value="+getMessage(): String" style="text;strokeColor=none;fillColor=none;align=left;verticalAlign=top;spacingLeft=4;spacingRight=4;overflow=hidden;rotatable=0;points=[[0,0.5],[1,0.5]];portConstraint=eastwest;" vertex="1" parent="zTV7QJXzMeomIHiCT_PH-0">
          <mxGeometry y="95.41666603088379" width="313" height="29" as="geometry" />
        </mxCell>
        <mxCell id="zTV7QJXzMeomIHiCT_PH-13" value="FileEncryption" style="swimlane;fontStyle=1;align=center;verticalAlign=top;childLayout=stackLayout;horizontal=1;startSize=28.933334350585938;horizontalStack=0;resizeParent=1;resizeParentMax=0;resizeLast=0;collapsible=0;marginBottom=0;" vertex="1" parent="WIyWlLk6GJQsqaUBKTNV-1">
          <mxGeometry x="294" y="39.99999999999999" width="240" height="65.93333435058594" as="geometry" />
        </mxCell>
        <mxCell id="zTV7QJXzMeomIHiCT_PH-15" value="+encrypt(inputFile: String, outputFile: String)" style="text;strokeColor=none;fillColor=none;align=left;verticalAlign=top;spacingLeft=4;spacingRight=4;overflow=hidden;rotatable=0;points=[[0,0.5],[1,0.5]];portConstraint=eastwest;" vertex="1" parent="zTV7QJXzMeomIHiCT_PH-13">
          <mxGeometry y="28.933334350585938" width="240" height="29" as="geometry" />
        </mxCell>
        <mxCell id="zTV7QJXzMeomIHiCT_PH-14" style="line;strokeWidth=1;fillColor=none;align=left;verticalAlign=middle;spacingTop=-1;spacingLeft=3;spacingRight=3;rotatable=0;labelPosition=right;points=[];portConstraint=eastwest;strokeColor=inherit;" vertex="1" parent="zTV7QJXzMeomIHiCT_PH-13">
          <mxGeometry y="57.93333435058594" width="240" height="8" as="geometry" />
        </mxCell>
        <mxCell id="zTV7QJXzMeomIHiCT_PH-21" value="Write to output file" style="whiteSpace=wrap;strokeWidth=2;" vertex="1" parent="WIyWlLk6GJQsqaUBKTNV-1">
          <mxGeometry x="250" y="600" width="155" height="34" as="geometry" />
        </mxCell>
        <mxCell id="zTV7QJXzMeomIHiCT_PH-32" value="FileDecryption" style="swimlane;fontStyle=1;align=center;verticalAlign=top;childLayout=stackLayout;horizontal=1;startSize=28.933334350585938;horizontalStack=0;resizeParent=1;resizeParentMax=0;resizeLast=0;collapsible=0;marginBottom=0;" vertex="1" parent="WIyWlLk6GJQsqaUBKTNV-1">
          <mxGeometry x="807" y="20" width="240" height="65.93333435058594" as="geometry" />
        </mxCell>
        <mxCell id="zTV7QJXzMeomIHiCT_PH-34" value="+decrypt(inputFile: String, outputFile: String)" style="text;strokeColor=none;fillColor=none;align=left;verticalAlign=top;spacingLeft=4;spacingRight=4;overflow=hidden;rotatable=0;points=[[0,0.5],[1,0.5]];portConstraint=eastwest;" vertex="1" parent="zTV7QJXzMeomIHiCT_PH-32">
          <mxGeometry y="28.933334350585938" width="240" height="29" as="geometry" />
        </mxCell>
        <mxCell id="zTV7QJXzMeomIHiCT_PH-33" style="line;strokeWidth=1;fillColor=none;align=left;verticalAlign=middle;spacingTop=-1;spacingLeft=3;spacingRight=3;rotatable=0;labelPosition=right;points=[];portConstraint=eastwest;strokeColor=inherit;" vertex="1" parent="zTV7QJXzMeomIHiCT_PH-32">
          <mxGeometry y="57.93333435058594" width="240" height="8" as="geometry" />
        </mxCell>
        <mxCell id="zTV7QJXzMeomIHiCT_PH-36" value="Start" style="whiteSpace=wrap;strokeWidth=2;" vertex="1" parent="WIyWlLk6GJQsqaUBKTNV-1">
          <mxGeometry x="902" y="167.07" width="50" height="34" as="geometry" />
        </mxCell>
        <mxCell id="zTV7QJXzMeomIHiCT_PH-37" value="Open input file" style="whiteSpace=wrap;strokeWidth=2;" vertex="1" parent="WIyWlLk6GJQsqaUBKTNV-1">
          <mxGeometry x="865" y="251.07" width="123" height="34" as="geometry" />
        </mxCell>
        <mxCell id="zTV7QJXzMeomIHiCT_PH-38" value="Open output file" style="whiteSpace=wrap;strokeWidth=2;" vertex="1" parent="WIyWlLk6GJQsqaUBKTNV-1">
          <mxGeometry x="860" y="334.07" width="133" height="34" as="geometry" />
        </mxCell>
        <mxCell id="zTV7QJXzMeomIHiCT_PH-39" value="Read input file" style="whiteSpace=wrap;strokeWidth=2;" vertex="1" parent="WIyWlLk6GJQsqaUBKTNV-1">
          <mxGeometry x="866" y="418.07" width="121" height="34" as="geometry" />
        </mxCell>
        <mxCell id="zTV7QJXzMeomIHiCT_PH-40" value="Decrypt data" style="whiteSpace=wrap;strokeWidth=2;" vertex="1" parent="WIyWlLk6GJQsqaUBKTNV-1">
          <mxGeometry x="873" y="502.07" width="108" height="34" as="geometry" />
        </mxCell>
        <mxCell id="zTV7QJXzMeomIHiCT_PH-41" value="Write to output file" style="whiteSpace=wrap;strokeWidth=2;" vertex="1" parent="WIyWlLk6GJQsqaUBKTNV-1">
          <mxGeometry x="873" y="585" width="155" height="34" as="geometry" />
        </mxCell>
        <mxCell id="zTV7QJXzMeomIHiCT_PH-42" value="Close files" style="whiteSpace=wrap;strokeWidth=2;" vertex="1" parent="WIyWlLk6GJQsqaUBKTNV-1">
          <mxGeometry x="882" y="669.07" width="88" height="34" as="geometry" />
        </mxCell>
        <mxCell id="zTV7QJXzMeomIHiCT_PH-43" value="End" style="whiteSpace=wrap;strokeWidth=2;" vertex="1" parent="WIyWlLk6GJQsqaUBKTNV-1">
          <mxGeometry x="906" y="753.07" width="41" height="34" as="geometry" />
        </mxCell>
        <mxCell id="zTV7QJXzMeomIHiCT_PH-44" value="" style="curved=1;startArrow=none;endArrow=block;exitX=0.49333343505859373;exitY=0.9901961158303654;entryX=0.5013550549018674;entryY=-0.00980388416963465;rounded=0;" edge="1" parent="WIyWlLk6GJQsqaUBKTNV-1" source="zTV7QJXzMeomIHiCT_PH-36" target="zTV7QJXzMeomIHiCT_PH-37">
          <mxGeometry relative="1" as="geometry">
            <Array as="points" />
          </mxGeometry>
        </mxCell>
        <mxCell id="zTV7QJXzMeomIHiCT_PH-45" value="" style="curved=1;startArrow=none;endArrow=block;exitX=0.5013550549018674;exitY=0.9803922316607308;entryX=0.5012531710746593;entryY=0.009803996366613051;rounded=0;" edge="1" parent="WIyWlLk6GJQsqaUBKTNV-1" source="zTV7QJXzMeomIHiCT_PH-37" target="zTV7QJXzMeomIHiCT_PH-38">
          <mxGeometry relative="1" as="geometry">
            <Array as="points" />
          </mxGeometry>
        </mxCell>
        <mxCell id="zTV7QJXzMeomIHiCT_PH-46" value="" style="curved=1;startArrow=none;endArrow=block;exitX=0.5012531710746593;exitY=1.0000001121969784;entryX=0.5013774525035511;entryY=1.1219697840073529e-7;rounded=0;" edge="1" parent="WIyWlLk6GJQsqaUBKTNV-1" source="zTV7QJXzMeomIHiCT_PH-38" target="zTV7QJXzMeomIHiCT_PH-39">
          <mxGeometry relative="1" as="geometry">
            <Array as="points" />
          </mxGeometry>
        </mxCell>
        <mxCell id="zTV7QJXzMeomIHiCT_PH-47" value="" style="curved=1;startArrow=none;endArrow=block;exitX=0.5013774525035511;exitY=0.9901962280273438;entryX=0.49691362734194156;entryY=-0.00980377197265625;rounded=0;" edge="1" parent="WIyWlLk6GJQsqaUBKTNV-1" source="zTV7QJXzMeomIHiCT_PH-39" target="zTV7QJXzMeomIHiCT_PH-40">
          <mxGeometry relative="1" as="geometry">
            <Array as="points" />
          </mxGeometry>
        </mxCell>
        <mxCell id="zTV7QJXzMeomIHiCT_PH-48" value="" style="curved=1;startArrow=none;endArrow=block;exitX=0.49691362734194156;exitY=0.9803923438577091;entryX=0.5010753016318045;entryY=0.009804108563591452;rounded=0;" edge="1" parent="WIyWlLk6GJQsqaUBKTNV-1" source="zTV7QJXzMeomIHiCT_PH-40">
          <mxGeometry relative="1" as="geometry">
            <Array as="points" />
            <mxPoint x="926.6700052528402" y="585.07" as="targetPoint" />
          </mxGeometry>
        </mxCell>
        <mxCell id="zTV7QJXzMeomIHiCT_PH-49" value="" style="curved=1;startArrow=none;endArrow=block;exitX=0.5010753016318045;exitY=1.0000002243939567;entryX=0.507575815374201;entryY=2.2439395680147059e-7;rounded=0;" edge="1" parent="WIyWlLk6GJQsqaUBKTNV-1" target="zTV7QJXzMeomIHiCT_PH-42">
          <mxGeometry relative="1" as="geometry">
            <Array as="points" />
            <mxPoint x="926.6666716781294" y="619.07" as="sourcePoint" />
          </mxGeometry>
        </mxCell>
        <mxCell id="zTV7QJXzMeomIHiCT_PH-50" value="" style="curved=1;startArrow=none;endArrow=block;exitX=0.507575815374201;exitY=0.9901963402243221;entryX=0.5040651647056021;entryY=-0.00980365977567785;rounded=0;" edge="1" parent="WIyWlLk6GJQsqaUBKTNV-1" source="zTV7QJXzMeomIHiCT_PH-42" target="zTV7QJXzMeomIHiCT_PH-43">
          <mxGeometry relative="1" as="geometry">
            <Array as="points" />
          </mxGeometry>
        </mxCell>
        <mxCell id="zTV7QJXzMeomIHiCT_PH-51" style="edgeStyle=orthogonalEdgeStyle;rounded=0;orthogonalLoop=1;jettySize=auto;html=1;exitX=1;exitY=0.5;exitDx=0;exitDy=0;entryX=1;entryY=0.5;entryDx=0;entryDy=0;" edge="1" parent="WIyWlLk6GJQsqaUBKTNV-1" source="zTV7QJXzMeomIHiCT_PH-34" target="zTV7QJXzMeomIHiCT_PH-36">
          <mxGeometry relative="1" as="geometry" />
        </mxCell>
        <mxCell id="zTV7QJXzMeomIHiCT_PH-52" value="Main" style="swimlane;fontStyle=1;align=center;verticalAlign=top;childLayout=stackLayout;horizontal=1;startSize=28.933334350585938;horizontalStack=0;resizeParent=1;resizeParentMax=0;resizeLast=0;collapsible=0;marginBottom=0;" vertex="1" parent="WIyWlLk6GJQsqaUBKTNV-1">
          <mxGeometry x="697" y="-120" width="163" height="65.93333435058594" as="geometry" />
        </mxCell>
        <mxCell id="zTV7QJXzMeomIHiCT_PH-54" value="+main(args: String[])" style="text;strokeColor=none;fillColor=none;align=left;verticalAlign=top;spacingLeft=4;spacingRight=4;overflow=hidden;rotatable=0;points=[[0,0.5],[1,0.5]];portConstraint=eastwest;" vertex="1" parent="zTV7QJXzMeomIHiCT_PH-52">
          <mxGeometry y="28.933334350585938" width="163" height="29" as="geometry" />
        </mxCell>
        <mxCell id="zTV7QJXzMeomIHiCT_PH-53" style="line;strokeWidth=1;fillColor=none;align=left;verticalAlign=middle;spacingTop=-1;spacingLeft=3;spacingRight=3;rotatable=0;labelPosition=right;points=[];portConstraint=eastwest;strokeColor=inherit;" vertex="1" parent="zTV7QJXzMeomIHiCT_PH-52">
          <mxGeometry y="57.93333435058594" width="163" height="8" as="geometry" />
        </mxCell>
        <mxCell id="zTV7QJXzMeomIHiCT_PH-116" value="" style="curved=1;startArrow=none;endArrow=open;endSize=12;rounded=0;entryX=0.039;entryY=0.005;entryDx=0;entryDy=0;entryPerimeter=0;exitX=-0.006;exitY=0.117;exitDx=0;exitDy=0;exitPerimeter=0;" edge="1" parent="WIyWlLk6GJQsqaUBKTNV-1" source="zTV7QJXzMeomIHiCT_PH-54">
          <mxGeometry relative="1" as="geometry">
            <Array as="points">
              <mxPoint x="409" y="-79" />
            </Array>
            <mxPoint x="618" y="-139" as="sourcePoint" />
            <mxPoint x="448" y="41" as="targetPoint" />
          </mxGeometry>
        </mxCell>
        <mxCell id="zTV7QJXzMeomIHiCT_PH-119" value="Start" style="whiteSpace=wrap;strokeWidth=2;" vertex="1" parent="WIyWlLk6GJQsqaUBKTNV-1">
          <mxGeometry x="294" y="190" width="50" height="34" as="geometry" />
        </mxCell>
        <mxCell id="zTV7QJXzMeomIHiCT_PH-120" value="Open input file" style="whiteSpace=wrap;strokeWidth=2;" vertex="1" parent="WIyWlLk6GJQsqaUBKTNV-1">
          <mxGeometry x="257" y="274" width="123" height="34" as="geometry" />
        </mxCell>
        <mxCell id="zTV7QJXzMeomIHiCT_PH-121" value="Open output file" style="whiteSpace=wrap;strokeWidth=2;" vertex="1" parent="WIyWlLk6GJQsqaUBKTNV-1">
          <mxGeometry x="250" y="360" width="133" height="34" as="geometry" />
        </mxCell>
        <mxCell id="zTV7QJXzMeomIHiCT_PH-122" value="Read input file" style="whiteSpace=wrap;strokeWidth=2;" vertex="1" parent="WIyWlLk6GJQsqaUBKTNV-1">
          <mxGeometry x="258" y="441" width="121" height="34" as="geometry" />
        </mxCell>
        <mxCell id="zTV7QJXzMeomIHiCT_PH-123" value="Encrypt data" style="whiteSpace=wrap;strokeWidth=2;" vertex="1" parent="WIyWlLk6GJQsqaUBKTNV-1">
          <mxGeometry x="265" y="525" width="107" height="34" as="geometry" />
        </mxCell>
        <mxCell id="zTV7QJXzMeomIHiCT_PH-124" value="Close files" style="whiteSpace=wrap;strokeWidth=2;" vertex="1" parent="WIyWlLk6GJQsqaUBKTNV-1">
          <mxGeometry x="274" y="692" width="88" height="34" as="geometry" />
        </mxCell>
        <mxCell id="zTV7QJXzMeomIHiCT_PH-125" value="End" style="whiteSpace=wrap;strokeWidth=2;" vertex="1" parent="WIyWlLk6GJQsqaUBKTNV-1">
          <mxGeometry x="298.5" y="770" width="41" height="34" as="geometry" />
        </mxCell>
        <mxCell id="zTV7QJXzMeomIHiCT_PH-126" value="" style="curved=1;startArrow=none;endArrow=block;exitX=0.49333343505859373;exitY=0.9901961158303654;entryX=0.5013550549018674;entryY=-0.00980388416963465;rounded=0;" edge="1" parent="WIyWlLk6GJQsqaUBKTNV-1" source="zTV7QJXzMeomIHiCT_PH-119" target="zTV7QJXzMeomIHiCT_PH-120">
          <mxGeometry relative="1" as="geometry">
            <Array as="points" />
          </mxGeometry>
        </mxCell>
        <mxCell id="zTV7QJXzMeomIHiCT_PH-127" value="" style="curved=1;startArrow=none;endArrow=block;exitX=0.5013550549018674;exitY=0.9803922316607308;entryX=0.5012531710746593;entryY=0.009803996366613051;rounded=0;" edge="1" parent="WIyWlLk6GJQsqaUBKTNV-1" source="zTV7QJXzMeomIHiCT_PH-120">
          <mxGeometry relative="1" as="geometry">
            <Array as="points" />
            <mxPoint x="318.670005213929" y="357" as="targetPoint" />
          </mxGeometry>
        </mxCell>
        <mxCell id="zTV7QJXzMeomIHiCT_PH-128" value="" style="curved=1;startArrow=none;endArrow=block;exitX=0.5012531710746593;exitY=1.0000001121969784;entryX=0.5013774525035511;entryY=1.1219697840073529e-7;rounded=0;" edge="1" parent="WIyWlLk6GJQsqaUBKTNV-1" target="zTV7QJXzMeomIHiCT_PH-122">
          <mxGeometry relative="1" as="geometry">
            <Array as="points" />
            <mxPoint x="318.66667171552945" y="391" as="sourcePoint" />
          </mxGeometry>
        </mxCell>
        <mxCell id="zTV7QJXzMeomIHiCT_PH-129" value="" style="curved=1;startArrow=none;endArrow=block;exitX=0.5013774525035511;exitY=0.9901962280273438;entryX=0.5015576799339223;entryY=-0.00980377197265625;rounded=0;" edge="1" parent="WIyWlLk6GJQsqaUBKTNV-1" source="zTV7QJXzMeomIHiCT_PH-122" target="zTV7QJXzMeomIHiCT_PH-123">
          <mxGeometry relative="1" as="geometry">
            <Array as="points" />
          </mxGeometry>
        </mxCell>
        <mxCell id="zTV7QJXzMeomIHiCT_PH-130" value="" style="curved=1;startArrow=none;endArrow=block;exitX=0.5015576799339223;exitY=0.9803923438577091;entryX=0.5010753016318045;entryY=0.009804108563591452;rounded=0;" edge="1" parent="WIyWlLk6GJQsqaUBKTNV-1" source="zTV7QJXzMeomIHiCT_PH-123">
          <mxGeometry relative="1" as="geometry">
            <Array as="points" />
            <mxPoint x="318.67000525284016" y="608" as="targetPoint" />
          </mxGeometry>
        </mxCell>
        <mxCell id="zTV7QJXzMeomIHiCT_PH-131" value="" style="curved=1;startArrow=none;endArrow=block;entryX=0.507575815374201;entryY=2.2439395680147059e-7;rounded=0;exitX=0.443;exitY=1.108;exitDx=0;exitDy=0;exitPerimeter=0;" edge="1" parent="WIyWlLk6GJQsqaUBKTNV-1" target="zTV7QJXzMeomIHiCT_PH-124" source="zTV7QJXzMeomIHiCT_PH-21">
          <mxGeometry relative="1" as="geometry">
            <Array as="points" />
            <mxPoint x="320" y="640" as="sourcePoint" />
          </mxGeometry>
        </mxCell>
        <mxCell id="zTV7QJXzMeomIHiCT_PH-132" value="" style="curved=1;startArrow=none;endArrow=block;exitX=0.507575815374201;exitY=0.9901963402243221;entryX=0.5040651647056021;entryY=-0.00980365977567785;rounded=0;" edge="1" parent="WIyWlLk6GJQsqaUBKTNV-1" source="zTV7QJXzMeomIHiCT_PH-124">
          <mxGeometry relative="1" as="geometry">
            <Array as="points" />
            <mxPoint x="318.6634666108546" y="776" as="targetPoint" />
          </mxGeometry>
        </mxCell>
        <mxCell id="zTV7QJXzMeomIHiCT_PH-140" value="Start" style="whiteSpace=wrap;strokeWidth=2;" vertex="1" parent="WIyWlLk6GJQsqaUBKTNV-1">
          <mxGeometry x="597.5" y="360" width="50" height="34" as="geometry" />
        </mxCell>
        <mxCell id="zTV7QJXzMeomIHiCT_PH-141" value="Initialize message variable" style="whiteSpace=wrap;strokeWidth=2;" vertex="1" parent="WIyWlLk6GJQsqaUBKTNV-1">
          <mxGeometry x="520" y="444" width="205" height="34" as="geometry" />
        </mxCell>
        <mxCell id="zTV7QJXzMeomIHiCT_PH-142" value="Display message" style="whiteSpace=wrap;strokeWidth=2;" vertex="1" parent="WIyWlLk6GJQsqaUBKTNV-1">
          <mxGeometry x="557" y="527" width="131" height="34" as="geometry" />
        </mxCell>
        <mxCell id="zTV7QJXzMeomIHiCT_PH-143" value="End" style="whiteSpace=wrap;strokeWidth=2;" vertex="1" parent="WIyWlLk6GJQsqaUBKTNV-1">
          <mxGeometry x="602" y="611" width="41" height="34" as="geometry" />
        </mxCell>
        <mxCell id="zTV7QJXzMeomIHiCT_PH-144" value="" style="curved=1;startArrow=none;endArrow=block;exitX=0.5122917175292969;exitY=0.9901961158303654;entryX=0.5005589554949504;entryY=-0.00980388416963465;rounded=0;" edge="1" parent="WIyWlLk6GJQsqaUBKTNV-1" source="zTV7QJXzMeomIHiCT_PH-140" target="zTV7QJXzMeomIHiCT_PH-141">
          <mxGeometry relative="1" as="geometry">
            <Array as="points" />
          </mxGeometry>
        </mxCell>
        <mxCell id="zTV7QJXzMeomIHiCT_PH-145" value="" style="curved=1;startArrow=none;endArrow=block;exitX=0.5005589554949504;exitY=0.9803922316607308;entryX=0.5008747013470599;entryY=0.009803996366613051;rounded=0;" edge="1" parent="WIyWlLk6GJQsqaUBKTNV-1" source="zTV7QJXzMeomIHiCT_PH-141" target="zTV7QJXzMeomIHiCT_PH-142">
          <mxGeometry relative="1" as="geometry">
            <Array as="points" />
          </mxGeometry>
        </mxCell>
        <mxCell id="zTV7QJXzMeomIHiCT_PH-146" value="" style="curved=1;startArrow=none;endArrow=block;exitX=0.5008747013470599;exitY=1.0000001121969784;entryX=0.5027947774747523;entryY=1.1219697840073529e-7;rounded=0;" edge="1" parent="WIyWlLk6GJQsqaUBKTNV-1" source="zTV7QJXzMeomIHiCT_PH-142" target="zTV7QJXzMeomIHiCT_PH-143">
          <mxGeometry relative="1" as="geometry">
            <Array as="points" />
          </mxGeometry>
        </mxCell>
        <mxCell id="zTV7QJXzMeomIHiCT_PH-147" style="edgeStyle=orthogonalEdgeStyle;rounded=0;orthogonalLoop=1;jettySize=auto;html=1;exitX=0;exitY=0.5;exitDx=0;exitDy=0;entryX=0.25;entryY=0;entryDx=0;entryDy=0;" edge="1" parent="WIyWlLk6GJQsqaUBKTNV-1" source="zTV7QJXzMeomIHiCT_PH-15" target="zTV7QJXzMeomIHiCT_PH-119">
          <mxGeometry relative="1" as="geometry" />
        </mxCell>
        <mxCell id="zTV7QJXzMeomIHiCT_PH-148" style="edgeStyle=orthogonalEdgeStyle;rounded=0;orthogonalLoop=1;jettySize=auto;html=1;exitX=0;exitY=0.5;exitDx=0;exitDy=0;entryX=0.25;entryY=0;entryDx=0;entryDy=0;" edge="1" parent="WIyWlLk6GJQsqaUBKTNV-1" source="zTV7QJXzMeomIHiCT_PH-4" target="zTV7QJXzMeomIHiCT_PH-140">
          <mxGeometry relative="1" as="geometry" />
        </mxCell>
        <mxCell id="zTV7QJXzMeomIHiCT_PH-155" value="" style="curved=1;startArrow=none;endArrow=open;endSize=12;rounded=0;exitX=1;exitY=0.25;exitDx=0;exitDy=0;entryX=0.5;entryY=0;entryDx=0;entryDy=0;" edge="1" parent="WIyWlLk6GJQsqaUBKTNV-1">
          <mxGeometry relative="1" as="geometry">
            <Array as="points">
              <mxPoint x="624" y="110" />
            </Array>
            <mxPoint x="534" y="56" as="sourcePoint" />
            <mxPoint x="601" y="180" as="targetPoint" />
          </mxGeometry>
        </mxCell>
        <mxCell id="zTV7QJXzMeomIHiCT_PH-156" value="Text" style="edgeLabel;html=1;align=center;verticalAlign=middle;resizable=0;points=[];" vertex="1" connectable="0" parent="zTV7QJXzMeomIHiCT_PH-155">
          <mxGeometry x="0.0459" y="-2" relative="1" as="geometry">
            <mxPoint x="1" as="offset" />
          </mxGeometry>
        </mxCell>
        <mxCell id="zTV7QJXzMeomIHiCT_PH-157" value="Start" style="whiteSpace=wrap;strokeWidth=2;" vertex="1" parent="WIyWlLk6GJQsqaUBKTNV-1">
          <mxGeometry x="1178" y="-33.93000000000001" width="50" height="34" as="geometry" />
        </mxCell>
        <mxCell id="zTV7QJXzMeomIHiCT_PH-158" value="Test encryption" style="whiteSpace=wrap;strokeWidth=2;" vertex="1" parent="WIyWlLk6GJQsqaUBKTNV-1">
          <mxGeometry x="1140" y="50.06999999999999" width="126" height="34" as="geometry" />
        </mxCell>
        <mxCell id="zTV7QJXzMeomIHiCT_PH-159" value="Test decryption" style="whiteSpace=wrap;strokeWidth=2;" vertex="1" parent="WIyWlLk6GJQsqaUBKTNV-1">
          <mxGeometry x="1140" y="133.07" width="126" height="34" as="geometry" />
        </mxCell>
        <mxCell id="zTV7QJXzMeomIHiCT_PH-160" value="End" style="whiteSpace=wrap;strokeWidth=2;" vertex="1" parent="WIyWlLk6GJQsqaUBKTNV-1">
          <mxGeometry x="1182" y="217.07" width="41" height="34" as="geometry" />
        </mxCell>
        <mxCell id="zTV7QJXzMeomIHiCT_PH-161" value="" style="curved=1;startArrow=none;endArrow=block;exitX=0.5015625;exitY=0.9901961158303654;entryX=0.5006200396825397;entryY=-0.00980388416963465;rounded=0;" edge="1" parent="WIyWlLk6GJQsqaUBKTNV-1" source="zTV7QJXzMeomIHiCT_PH-157" target="zTV7QJXzMeomIHiCT_PH-158">
          <mxGeometry relative="1" as="geometry">
            <Array as="points" />
          </mxGeometry>
        </mxCell>
        <mxCell id="zTV7QJXzMeomIHiCT_PH-162" value="" style="curved=1;startArrow=none;endArrow=block;exitX=0.5006200396825397;exitY=0.9803922316607308;entryX=0.5006200396825397;entryY=0.009803996366613051;rounded=0;" edge="1" parent="WIyWlLk6GJQsqaUBKTNV-1" source="zTV7QJXzMeomIHiCT_PH-158" target="zTV7QJXzMeomIHiCT_PH-159">
          <mxGeometry relative="1" as="geometry">
            <Array as="points" />
          </mxGeometry>
        </mxCell>
        <mxCell id="zTV7QJXzMeomIHiCT_PH-163" value="" style="curved=1;startArrow=none;endArrow=block;exitX=0.5006200396825397;exitY=1.0000001121969784;entryX=0.5141006097560976;entryY=1.1219697840073529e-7;rounded=0;" edge="1" parent="WIyWlLk6GJQsqaUBKTNV-1" source="zTV7QJXzMeomIHiCT_PH-159" target="zTV7QJXzMeomIHiCT_PH-160">
          <mxGeometry relative="1" as="geometry">
            <Array as="points" />
          </mxGeometry>
        </mxCell>
        <mxCell id="zTV7QJXzMeomIHiCT_PH-165" value="" style="curved=1;startArrow=none;endArrow=open;endSize=12;rounded=0;entryX=0.039;entryY=0.005;entryDx=0;entryDy=0;entryPerimeter=0;exitX=0;exitY=0.25;exitDx=0;exitDy=0;" edge="1" parent="WIyWlLk6GJQsqaUBKTNV-1">
          <mxGeometry relative="1" as="geometry">
            <Array as="points">
              <mxPoint x="640" y="70" />
            </Array>
            <mxPoint x="817" y="46" as="sourcePoint" />
            <mxPoint x="679" y="190" as="targetPoint" />
          </mxGeometry>
        </mxCell>
        <mxCell id="zTV7QJXzMeomIHiCT_PH-166" value="" style="curved=1;startArrow=none;endArrow=open;endSize=12;rounded=0;entryX=0.124;entryY=-0.056;entryDx=0;entryDy=0;entryPerimeter=0;exitX=0;exitY=0.25;exitDx=0;exitDy=0;" edge="1" parent="WIyWlLk6GJQsqaUBKTNV-1" target="zTV7QJXzMeomIHiCT_PH-32">
          <mxGeometry relative="1" as="geometry">
            <Array as="points">
              <mxPoint x="520" y="-80" />
            </Array>
            <mxPoint x="697" y="-104" as="sourcePoint" />
            <mxPoint x="559" y="40" as="targetPoint" />
          </mxGeometry>
        </mxCell>
        <mxCell id="zTV7QJXzMeomIHiCT_PH-167" style="edgeStyle=orthogonalEdgeStyle;rounded=0;orthogonalLoop=1;jettySize=auto;html=1;exitX=1;exitY=0.5;exitDx=0;exitDy=0;entryX=0.25;entryY=0;entryDx=0;entryDy=0;" edge="1" parent="WIyWlLk6GJQsqaUBKTNV-1" source="zTV7QJXzMeomIHiCT_PH-54" target="zTV7QJXzMeomIHiCT_PH-157">
          <mxGeometry relative="1" as="geometry" />
        </mxCell>
      </root>
    </mxGraphModel>
  </diagram>
</mxfile>
